<svg xmlns="http://www.w3.org/2000/svg" version="1.1" xmlns:xlink="http://www.w3.org/1999/xlink" xmlns:svgjs="http://svgjs.dev/svgjs" width="1440" height="560" preserveAspectRatio="none" viewBox="0 0 1440 560"><g mask="url(&quot;#SvgjsMask1002&quot;)" fill="none"><path d="M491.416,248.454C541.657,247.036,586.881,219.309,611.804,175.663C636.517,132.385,636.995,79.649,612.638,36.17C587.711,-8.328,542.413,-40.097,491.416,-39.239C441.691,-38.402,402.584,-2.549,377.063,40.135C350.688,84.247,333.922,137.755,358.653,182.808C384.115,229.192,438.524,249.947,491.416,248.454" fill="rgba(28, 83, 142, 0.4)" class="triangle-float1"></path><path d="M1315.506,544.528C1361.918,544.462,1409.331,527.161,1431.743,486.519C1453.557,446.96,1442.623,397.985,1416.728,360.968C1394.393,329.04,1354.468,320.846,1315.506,320.359C1275.376,319.857,1232.852,325.527,1209.802,358.381C1183.343,396.093,1175.948,446.789,1198.696,486.849C1221.678,527.321,1268.964,544.594,1315.506,544.528" fill="rgba(28, 83, 142, 0.4)" class="triangle-float1"></path><path d="M682.846,186.232C705.085,187.098,722.926,169.907,733.91,150.55C744.729,131.484,748.521,108.462,737.843,89.316C726.914,69.721,705.282,58.74,682.846,58.994C660.848,59.243,639.923,70.921,629.961,90.535C620.757,108.658,628.407,129.033,638.238,146.823C648.524,165.435,661.597,185.404,682.846,186.232" fill="rgba(28, 83, 142, 0.4)" class="triangle-float3"></path><path d="M216.04227612584623 326.8895004175303L162.42276232889955 230.15733691340353 119.31011262171945 380.509014214477z" fill="rgba(28, 83, 142, 0.4)" class="triangle-float3"></path><path d="M323.6959813124068 116.71020670669094L262.052405302881 198.51399503629622 415.57987580205184 250.0774648857822z" fill="rgba(28, 83, 142, 0.4)" class="triangle-float2"></path><path d="M579.493,139.475C620.919,140.096,665.556,128.584,685.39,92.209C704.659,56.869,688.465,14.5,665.757,-18.735C646.235,-47.307,614.089,-62.02,579.493,-62.779C543.292,-63.573,506.401,-52.864,486.415,-22.669C464.324,10.707,459.031,54.402,478.957,89.114C498.957,123.954,539.326,138.873,579.493,139.475" fill="rgba(28, 83, 142, 0.4)" class="triangle-float3"></path><path d="M1192.0432623923289 141.99078625914805L1281.1945524859439 176.2127602030959 1287.9518683550582 25.374838090699527z" fill="rgba(28, 83, 142, 0.4)" class="triangle-float3"></path><path d="M702.196,627.359C740.341,628.872,774.538,604.765,793.296,571.516C811.725,538.85,813.964,497.585,792.927,466.535C773.81,438.318,736.273,436.395,702.196,437.055C669.694,437.685,634.517,442.328,617.354,469.936C599.44,498.752,606.711,534.884,622.809,564.753C639.946,596.55,666.103,625.927,702.196,627.359" fill="rgba(28, 83, 142, 0.4)" class="triangle-float2"></path><path d="M812.3598510730483 337.51886481421275L770.9256219513729 412.26819285257307 845.6749499897332 453.7024219742485 887.1091791114086 378.95309393588815z" fill="rgba(28, 83, 142, 0.4)" class="triangle-float1"></path></g><defs><mask id="SvgjsMask1002"><rect width="1440" height="560" fill="#ffffff"></rect></mask><style>
                @keyframes float1 {
                    0%{transform: translate(0, 0)}
                    50%{transform: translate(-10px, 0)}
                    100%{transform: translate(0, 0)}
                }

                .triangle-float1 {
                    animation: float1 5s infinite;
                }

                @keyframes float2 {
                    0%{transform: translate(0, 0)}
                    50%{transform: translate(-5px, -5px)}
                    100%{transform: translate(0, 0)}
                }

                .triangle-float2 {
                    animation: float2 4s infinite;
                }

                @keyframes float3 {
                    0%{transform: translate(0, 0)}
                    50%{transform: translate(0, -10px)}
                    100%{transform: translate(0, 0)}
                }

                .triangle-float3 {
                    animation: float3 6s infinite;
                }
            </style></defs></svg>