<svg xmlns="http://www.w3.org/2000/svg" version="1.1" xmlns:xlink="http://www.w3.org/1999/xlink" xmlns:svgjs="http://svgjs.dev/svgjs" width="1440" height="560" preserveAspectRatio="none" viewBox="0 0 1440 560"><g mask="url(&quot;#SvgjsMask1002&quot;)" fill="none"><path d="M1512 560L0 560 L0 336.91Q54.63 319.54, 72 374.17Q119.25 301.42, 192 348.67Q200.31 284.99, 264 293.3Q294.72 252.02, 336 282.74Q435.94 262.68, 456 362.62Q523.04 309.66, 576 376.7Q590.38 271.08, 696 285.46Q738.13 255.6, 768 297.73Q817.79 275.52, 840 325.31Q914.61 279.91, 960 354.52Q1013.58 288.1, 1080 341.68Q1151.7 293.38, 1200 365.08Q1242.33 287.4, 1320 329.73Q1361.45 251.18, 1440 292.63Q1489.1 269.73, 1512 318.82z" fill="#182f5d"></path><path d="M1464 560L0 560 L0 386.54Q23.6 338.14, 72 361.74Q149.99 319.73, 192 397.72Q249.87 383.59, 264 441.45Q268.75 374.2, 336 378.96Q364.41 335.37, 408 363.77Q462.31 346.08, 480 400.39Q547.73 348.12, 600 415.84Q646.04 341.88, 720 387.91Q761.33 357.24, 792 398.57Q841.22 375.79, 864 425.01Q877.89 366.9, 936 380.79Q980.97 353.76, 1008 398.73Q1085.77 356.5, 1128 434.28Q1134.09 368.37, 1200 374.46Q1224.64 327.1, 1272 351.74Q1353.86 313.6, 1392 395.46Q1420.96 352.42, 1464 381.38z" fill="#25467d"></path><path d="M1536 560L0 560 L0 483.4Q46.38 457.78, 72 504.16Q77.29 437.45, 144 442.74Q212.07 390.81, 264 458.88Q310.06 384.94, 384 431.01Q450.87 377.88, 504 444.75Q552.26 421.01, 576 469.27Q626.11 447.38, 648 497.48Q693.93 471.41, 720 517.34Q734.6 459.94, 792 474.54Q836.33 398.87, 912 443.2Q981.94 393.14, 1032 463.08Q1114.11 425.19, 1152 507.29Q1157.58 440.87, 1224 446.44Q1251.16 401.6, 1296 428.76Q1381.68 394.44, 1416 480.12Q1489.52 433.64, 1536 507.17z" fill="#356cb1"></path><path d="M1560 560L0 560 L0 526.33Q28.78 483.12, 72 511.9Q147.5 467.4, 192 542.91Q229.63 460.54, 312 498.18Q384.1 450.28, 432 522.38Q506.83 477.21, 552 552.04Q604.81 484.85, 672 537.66Q722.54 468.2, 792 518.75Q845.19 499.94, 864 553.13Q869.44 486.57, 936 492.01Q972.14 456.15, 1008 492.3Q1078.32 490.62, 1080 560.93Q1123.99 484.92, 1200 528.91Q1268.56 477.47, 1320 546.03Q1364.07 470.1, 1440 514.16Q1533.75 487.91, 1560 581.66z" fill="white"></path></g><defs><mask id="SvgjsMask1002"><rect width="1440" height="560" fill="#ffffff"></rect></mask></defs></svg>