<svg xmlns="http://www.w3.org/2000/svg" version="1.1" xmlns:xlink="http://www.w3.org/1999/xlink" xmlns:svgjs="http://svgjs.dev/svgjs" width="1440" height="560" preserveAspectRatio="none" viewBox="0 0 1440 560"><g mask="url(&quot;#SvgjsMask1008&quot;)" fill="none"><path d="M251.33 0C287.99 31.16 242.59 106.58 280 119C326.92 134.58 360 98.13 420 56C444.73 38.63 423.98 10.19 449.47 0C493.98 -17.81 504.74 0 560 0C630 0 630 0 700 0C770 0 770 0 840 0C854.74 0 855.32 -3.66 869.47 0C925.32 14.45 927.02 36.21 980 36.21C1010.67 36.21 1005.46 8.1 1036.76 0C1075.46 -10.01 1078.38 0 1120 0C1190 0 1190 0 1260 0C1330 0 1330 0 1400 0C1470 0 1505 -35 1540 0C1575 35 1540 70 1540 140C1540 210 1540 210 1540 280C1540 315.78 1563.17 333.73 1540 351.56C1493.17 387.58 1467.6 363.87 1400 387.69C1370.5 398.09 1361.76 394.48 1345.81 420C1307.92 480.63 1327.61 502.41 1292.31 560C1284.7 572.41 1276.15 560 1260 560C1190 560 1190 560 1120 560C1050 560 1050 560 980 560C910 560 910 560 840 560C784 560 779.72 570.34 728 560C709.72 556.34 716.35 532 700 532C673.53 532 672.99 553.87 642.35 560C602.99 567.87 601.17 560 560 560C490 560 490 560 420 560C350 560 350 560 280 560C210 560 210 560 140 560C70 560 35 595 0 560C-35 525 0 490 0 420C0 350 0 350 0 280C0 210 0 210 0 140C0 70 -35 35 0 0C35 -35 70 0 140 0C195.67 0 217.99 -28.34 251.33 0" stroke="rgba(30, 30, 30, 1)" stroke-width="2"></path><path d="M560 106.78C533.23 106.78 501.45 112.13 498.75 140C493.05 198.74 516.77 212.62 543.2 280C547.39 290.69 552.5 296.15 560 296.15C566.22 296.15 569.2 289.44 570.63 280C581.01 211.36 587.73 207.15 583.61 140C582.42 120.54 575.66 106.78 560 106.78" stroke="rgba(30, 30, 30, 1)" stroke-width="2"></path><path d="M1120 243.94C1101.32 243.94 1091.67 259.74 1091.67 280C1091.67 316.15 1096.74 356.77 1120 356.77C1151.94 356.77 1202.07 311.38 1202.07 280C1202.07 254.97 1156.52 243.94 1120 243.94" stroke="rgba(30, 30, 30, 1)" stroke-width="2"></path><path d="M980 394.39C959.58 394.39 942.5 407.25 942.5 420C942.5 432.7 959.61 445.3 980 445.3C1014.57 445.3 1052.41 432.72 1052.41 420C1052.41 407.26 1014.54 394.39 980 394.39" stroke="rgba(30, 30, 30, 1)" stroke-width="2"></path><path d="M1451.85 560C1451.85 543.25 1511.91 498.97 1540 498.97C1555.99 498.97 1558.03 547.52 1540 560C1513.96 578.03 1451.85 573.77 1451.85 560" stroke="rgba(30, 30, 30, 1)" stroke-width="2"></path><path d="M38.62 140C49.25 73.04 4.88 39.8 33.7 0C55.57 -30.2 86.85 0 140 0C174.58 0 194.1 -22.94 209.16 0C240.04 47.06 210.28 73.85 231.88 140C245.7 182.35 243.84 209.76 280 217C337.9 228.6 366.12 160.12 420 177.69C462.72 191.62 438.96 234.56 473.2 280C508.96 327.45 521.27 363.46 560 363.46C592.14 363.46 601.27 326.45 614.94 280C634.16 214.72 640.97 204.29 625.78 140C613.5 88.02 595.87 91.17 560 47.46C538.42 21.17 510.88 13.8 510.88 0C510.88 -9.93 535.44 0 560 0C630 0 630 0 700 0C748.06 0 766.38 -26.02 796.12 0C836.38 35.23 796.1 99.45 840 122.5C888.04 147.72 914.45 121.58 980 96.55C1054.45 68.11 1052.7 58.88 1120 15.56C1127.7 10.61 1121.28 0.97 1130 0C1191.28 -6.81 1195 0 1260 0C1330 0 1330 0 1400 0C1435 0 1466.25 -22.52 1470 0C1477.91 47.48 1410.98 75.38 1423.33 140C1437.74 215.38 1530.18 228.61 1523.53 280C1518.51 318.8 1459.96 320.38 1400 320.38C1360.7 320.38 1350.87 311.48 1325 280C1280.87 226.29 1311.16 172.23 1260 150C1208.66 127.69 1179.09 154.33 1120 190.91C1074.09 219.33 1087.15 237.34 1050 280C1017.15 317.74 1018.49 320.01 980 351.71C933.49 390.01 880 386 880 420C880 453.88 930.84 452.55 980 487.47C1029.39 522.55 1077.1 539.87 1077.1 560C1077.1 576.13 1028.55 560 980 560C910 560 910 560 840 560C809 560 803.19 574.03 778 560C733.19 535.03 746.36 487.73 700 482C637.36 474.27 629.56 506.43 560 533.08C527.74 545.43 529.61 553.61 496.36 560C459.61 567.07 458.18 560 420 560C350 560 350 560 280 560C210 560 210 560 140 560C70 560 40.83 589.17 0 560C-29.17 539.17 -15.92 502.07 0 460C10.57 432.07 52.97 443.45 52.97 420C52.97 389.66 14.37 390.39 0 352.41C-12.12 320.39 0 316.21 0 280C0 246.13 -8.74 243.94 0 212.26C10.57 173.94 32.4 179.17 38.62 140" stroke="rgba(30, 30, 30, 1)" stroke-width="2"></path><path d="M840 186.67C831.75 186.67 824.44 234.2 824.44 280C824.44 299.96 831.81 318.18 840 318.18C848.34 318.18 857.5 300.16 857.5 280C857.5 234.41 848.28 186.67 840 186.67" stroke="rgba(30, 30, 30, 1)" stroke-width="2"></path><path d="M280 346.32C248.98 346.32 214.88 385.86 214.88 420C214.88 449.11 248.56 472.83 280 472.83C308.57 472.83 334.9 448.67 334.9 420C334.9 385.42 308.99 346.32 280 346.32" stroke="rgba(30, 30, 30, 1)" stroke-width="2"></path><path d="M98.97 140C104.13 70.4 82.69 54 98.52 0C103.21 -16 119.26 0 140 0C153.5 0 163.99 -11.29 166.99 0C182.59 58.71 165.46 71.12 177.19 140C189.3 211.12 224.31 214.67 214.67 280C205.72 340.67 175.07 392 140 392C106.62 392 87.53 339.85 77.78 280C67.01 213.85 93.76 210.4 98.97 140" stroke="rgba(30, 30, 30, 1)" stroke-width="2"></path><path d="M667.95 140C648.58 65.02 577.49 41.2 586.92 0C593.51 -28.8 643.46 0 700 0C721.94 0 736.2 -16.56 743.88 0C768.64 53.44 760.92 69.64 764.88 140C768.8 209.64 761.85 209.99 759.63 280C757.41 349.99 777.16 366.06 756 420C747.35 442.06 728.21 432 700 432C658.21 432 623.47 447.87 616 420C603.09 371.87 645.97 351.53 659.24 280C671.94 211.53 684.74 205.02 667.95 140" stroke="rgba(30, 30, 30, 1)" stroke-width="2"></path><path d="M1260 51.58C1235.49 51.58 1213.33 15.43 1213.33 0C1213.33 -10.36 1236.66 0 1260 0C1288 0 1316 -10.93 1316 0C1316 14.86 1286.83 51.58 1260 51.58" stroke="rgba(30, 30, 30, 1)" stroke-width="2"></path><path d="M930.42 280C930.42 237.78 959.82 180.83 980 180.83C998.77 180.83 1008.33 234 1008.33 280C1008.33 298.09 996.12 309.02 980 309.02C957.17 309.02 930.42 301.88 930.42 280" stroke="rgba(30, 30, 30, 1)" stroke-width="2"></path><path d="M403.53 420C403.53 385.93 400.07 350 420 350C450.3 350 504 391.65 504 420C504 443.45 455.54 453.6 420 453.6C405.3 453.6 403.53 437.73 403.53 420" stroke="rgba(30, 30, 30, 1)" stroke-width="2"></path><path d="M0 531.43C59.96 477.47 70.88 432.16 140 434C210.88 435.88 208.33 489.11 280 538.87C299.07 552.11 321.48 554.41 321.48 560C321.48 564.98 300.74 560 280 560C210 560 210 560 140 560C70 560 58.14 571.86 0 560C-11.86 557.58 -10.04 540.47 0 531.43" stroke="rgba(30, 30, 30, 1)" stroke-width="2"></path><path d="M828 560C828 536.85 818.19 508.36 840 504C894.19 493.18 913.41 509 980 529.64C1003.74 537 1020.65 551.57 1020.65 560C1020.65 566.75 1000.33 560 980 560C910 560 910 560 840 560C834 560 828 564.85 828 560" stroke="rgba(30, 30, 30, 1)" stroke-width="2"></path></g><defs><mask id="SvgjsMask1008"><rect width="1440" height="560" fill="#ffffff"></rect></mask></defs></svg>