<svg xmlns="http://www.w3.org/2000/svg" version="1.1" xmlns:xlink="http://www.w3.org/1999/xlink" xmlns:svgjs="http://svgjs.dev/svgjs" width="1440" height="560" preserveAspectRatio="none" viewBox="0 0 1440 560"><g mask="url(&quot;#SvgjsMask1042&quot;)" fill="none"><path d="M198 154L197 420" stroke-width="10" stroke="url(&quot;#SvgjsLinearGradient1043&quot;)" stroke-linecap="round" class="Down"></path><path d="M1284 314L1283 554" stroke-width="8" stroke="url(&quot;#SvgjsLinearGradient1043&quot;)" stroke-linecap="round" class="Down"></path><path d="M1304 5L1303 375" stroke-width="6" stroke="url(&quot;#SvgjsLinearGradient1044&quot;)" stroke-linecap="round" class="Up"></path><path d="M780 179L779 -63" stroke-width="8" stroke="url(&quot;#SvgjsLinearGradient1043&quot;)" stroke-linecap="round" class="Down"></path><path d="M1155 252L1154 548" stroke-width="8" stroke="url(&quot;#SvgjsLinearGradient1043&quot;)" stroke-linecap="round" class="Down"></path><path d="M604 63L603 243" stroke-width="6" stroke="url(&quot;#SvgjsLinearGradient1044&quot;)" stroke-linecap="round" class="Up"></path><path d="M388 58L387 268" stroke-width="6" stroke="url(&quot;#SvgjsLinearGradient1043&quot;)" stroke-linecap="round" class="Down"></path><path d="M1315 153L1314 -78" stroke-width="6" stroke="url(&quot;#SvgjsLinearGradient1044&quot;)" stroke-linecap="round" class="Up"></path><path d="M79 146L78 462" stroke-width="8" stroke="url(&quot;#SvgjsLinearGradient1044&quot;)" stroke-linecap="round" class="Up"></path><path d="M1048 230L1047 -25" stroke-width="6" stroke="url(&quot;#SvgjsLinearGradient1044&quot;)" stroke-linecap="round" class="Up"></path><path d="M349 222L348 493" stroke-width="8" stroke="url(&quot;#SvgjsLinearGradient1044&quot;)" stroke-linecap="round" class="Up"></path><path d="M1100 342L1099 700" stroke-width="10" stroke="url(&quot;#SvgjsLinearGradient1044&quot;)" stroke-linecap="round" class="Up"></path><path d="M51 48L50 -172" stroke-width="6" stroke="url(&quot;#SvgjsLinearGradient1043&quot;)" stroke-linecap="round" class="Down"></path><path d="M402 252L401 36" stroke-width="10" stroke="url(&quot;#SvgjsLinearGradient1043&quot;)" stroke-linecap="round" class="Down"></path><path d="M852 229L851 -49" stroke-width="6" stroke="url(&quot;#SvgjsLinearGradient1043&quot;)" stroke-linecap="round" class="Down"></path><path d="M1014 285L1013 45" stroke-width="6" stroke="url(&quot;#SvgjsLinearGradient1043&quot;)" stroke-linecap="round" class="Down"></path><path d="M1126 51L1125 -316" stroke-width="8" stroke="url(&quot;#SvgjsLinearGradient1043&quot;)" stroke-linecap="round" class="Down"></path><path d="M1372 39L1371 -322" stroke-width="8" stroke="url(&quot;#SvgjsLinearGradient1043&quot;)" stroke-linecap="round" class="Down"></path><path d="M403 174L402 480" stroke-width="10" stroke="url(&quot;#SvgjsLinearGradient1043&quot;)" stroke-linecap="round" class="Down"></path><path d="M1227 526L1226 351" stroke-width="8" stroke="url(&quot;#SvgjsLinearGradient1043&quot;)" stroke-linecap="round" class="Down"></path><path d="M33 98L32 374" stroke-width="10" stroke="url(&quot;#SvgjsLinearGradient1044&quot;)" stroke-linecap="round" class="Up"></path><path d="M93 542L92 781" stroke-width="10" stroke="url(&quot;#SvgjsLinearGradient1044&quot;)" stroke-linecap="round" class="Up"></path><path d="M1265 504L1264 341" stroke-width="8" stroke="url(&quot;#SvgjsLinearGradient1043&quot;)" stroke-linecap="round" class="Down"></path><path d="M518 444L517 198" stroke-width="10" stroke="url(&quot;#SvgjsLinearGradient1043&quot;)" stroke-linecap="round" class="Down"></path><path d="M1170 138L1169 298" stroke-width="10" stroke="url(&quot;#SvgjsLinearGradient1044&quot;)" stroke-linecap="round" class="Up"></path><path d="M1228 214L1227 416" stroke-width="10" stroke="url(&quot;#SvgjsLinearGradient1044&quot;)" stroke-linecap="round" class="Up"></path><path d="M479 237L478 -174" stroke-width="6" stroke="url(&quot;#SvgjsLinearGradient1044&quot;)" stroke-linecap="round" class="Up"></path><path d="M313 184L312 544" stroke-width="8" stroke="url(&quot;#SvgjsLinearGradient1043&quot;)" stroke-linecap="round" class="Down"></path><path d="M792 78L791 324" stroke-width="10" stroke="url(&quot;#SvgjsLinearGradient1043&quot;)" stroke-linecap="round" class="Down"></path><path d="M288 551L287 305" stroke-width="6" stroke="url(&quot;#SvgjsLinearGradient1044&quot;)" stroke-linecap="round" class="Up"></path><path d="M978 476L977 859" stroke-width="10" stroke="url(&quot;#SvgjsLinearGradient1043&quot;)" stroke-linecap="round" class="Down"></path><path d="M760 29L759 425" stroke-width="8" stroke="url(&quot;#SvgjsLinearGradient1043&quot;)" stroke-linecap="round" class="Down"></path><path d="M4 527L3 120" stroke-width="10" stroke="url(&quot;#SvgjsLinearGradient1043&quot;)" stroke-linecap="round" class="Down"></path><path d="M1079 127L1078 273" stroke-width="10" stroke="url(&quot;#SvgjsLinearGradient1044&quot;)" stroke-linecap="round" class="Up"></path><path d="M335 96L334 244" stroke-width="6" stroke="url(&quot;#SvgjsLinearGradient1044&quot;)" stroke-linecap="round" class="Up"></path><path d="M1295 453L1294 305" stroke-width="10" stroke="url(&quot;#SvgjsLinearGradient1043&quot;)" stroke-linecap="round" class="Down"></path></g><defs><mask id="SvgjsMask1042"><rect width="1440" height="560" fill="#ffffff"></rect></mask><linearGradient x1="0%" y1="0%" x2="0%" y2="100%" id="SvgjsLinearGradient1043"><stop stop-color="rgba(30, 30, 30, 0)" offset="0"></stop><stop stop-color="rgba(30, 30, 30, 1)" offset="1"></stop></linearGradient><linearGradient x1="0%" y1="100%" x2="0%" y2="0%" id="SvgjsLinearGradient1044"><stop stop-color="rgba(30, 30, 30, 0)" offset="0"></stop><stop stop-color="rgba(30, 30, 30, 1)" offset="1"></stop></linearGradient></defs></svg>